Coordinates
version=1
nRows=5
nColumns=63
inDegrees=yes

Units are S.I. units (second, meters, Newtons, ...)
If the header above contains a line with 'inDegrees', this indicates whether rotational values are in degrees (yes) or radians (no).

endheader
time	pelvis_tilt	pelvis_list	pelvis_rotation	pelvis_tx	pelvis_ty	pelvis_tz	hip_flexion_r	hip_adduction_r	hip_rotation_r	knee_angle_r	knee_angle_r_beta	ankle_angle_r	subtalar_angle_r	mtp_angle_r	hip_flexion_l	hip_adduction_l	hip_rotation_l	knee_angle_l	knee_angle_l_beta	ankle_angle_l	subtalar_angle_l	mtp_angle_l	L5_S1_Flex_Ext	L5_S1_Lat_Bending	L5_S1_axial_rotation	L4_L5_Flex_Ext	L4_L5_Lat_Bending	L4_L5_axial_rotation	L3_L4_Flex_Ext	L3_L4_Lat_Bending	L3_L4_axial_rotation	L2_L3_Flex_Ext	L2_L3_Lat_Bending	L2_L3_axial_rotation	L1_L2_Flex_Ext	L1_L2_Lat_Bending	L1_L2_axial_rotation	L1_T12_Flex_Ext	L1_T12_Lat_Bending	L1_T12_axial_rotation	Abs_r3	Abs_r2	Abs_r1	Abs_t1	Abs_t2	neck_flexion	neck_bending	neck_rotation	arm_flex_r	arm_add_r	arm_rot_r	elbow_flex_r	pro_sup_r	wrist_flex_r	wrist_dev_r	arm_flex_l	arm_add_l	arm_rot_l	elbow_flex_l	pro_sup_l	wrist_flex_l	wrist_dev_l
      6.57627119	      8.11830863	      0.29554993	     96.51902735	      0.28251451	      1.15562643	      0.18142646	     -5.38420831	      5.90193657	    -13.47520120	     12.09296919	      0.21106213	     29.30381608	     -2.70659554	      0.00000000	     -8.50994968	    -11.28765303	     -5.62063680	     10.49269295	      0.18313204	     35.44079769	      6.86836242	      0.00000000	      0.45220615	      0.78220452	     -0.66861528	      0.83979204	      1.04033202	     -0.71040373	      0.74292949	      1.90185208	     -0.71040373	      0.51682641	      1.90185208	     -0.58503837	      0.41991863	      1.59507147	     -0.54324991	      0.25839059	      1.21163481	     -0.50146146	      3.23006332	      8.84845402	     -3.71863758	      0.00000000	      0.00000000	     28.32687429	     -2.68804209	      9.73589035	    151.39823515	    -43.32042904	    111.82479015	     45.21852017	     85.13776439	    -14.11735000	     13.36750569	    156.22215415	    -27.09165267	    117.82317171	     46.32372490	     44.91066023	     -6.69134870	      7.89078958
      6.59322034	      8.27066692	      0.31722956	     96.23274294	      0.28266756	      1.15658704	      0.17996256	     -5.34288605	      6.01434401	    -13.93573776	     12.24154935	      0.21365534	     29.12476514	     -2.45871708	      0.00000000	     -8.59920625	    -11.36821151	     -5.74584717	     10.25286760	      0.17894630	     35.98891679	      7.57156395	      0.00000000	      0.46089026	      0.80798323	     -0.67146854	      0.85591930	      1.07461769	     -0.71343533	      0.75719660	      1.96453042	     -0.71343533	      0.52675148	      1.96453042	     -0.58753498	      0.42798269	      1.64763940	     -0.54556819	      0.26335269	      1.25156602	     -0.50360141	      3.29209302	      9.14006786	     -3.73450660	      0.00000000	      0.00000000	     28.32562761	     -2.93605037	     10.50449165	    151.58404811	    -42.78388095	    113.38268863	     45.16045013	     85.08399037	    -14.45548318	     14.12747826	    156.70466164	    -26.22383921	    116.70644097	     46.29425422	     44.67301265	     -5.20810553	      5.62528585
      6.61016949	      8.40753243	      0.31969732	     95.89770345	      0.28305345	      1.15749424	      0.17824262	     -5.31563553	      6.10514318	    -14.43311433	     12.37339243	      0.21595644	     28.92731486	     -2.10624648	      0.00000000	     -8.71753409	    -11.43327505	     -6.02550460	      9.95821036	      0.17380356	     36.50023286	      8.37396135	      0.00000000	      0.47268494	      0.84517749	     -0.71927945	      0.87782320	      1.12408606	     -0.76423441	      0.77657409	      2.05496454	     -0.76423441	      0.54023162	      2.05496454	     -0.62936952	      0.43893524	      1.72348593	     -0.58441455	      0.27009218	      1.30917993	     -0.53945959	      3.37634127	      9.56081676	     -4.00041651	      0.00000000	      0.00000000	     28.32902657	     -2.53343021	     12.54266838	    151.34565443	    -41.92365460	    114.04115591	     45.54784858	     84.27889223	    -14.28435277	     14.48140159	    156.98363403	    -26.16544962	    116.10061566	     45.25833727	     44.59948505	     -3.95474603	      3.65155495
      6.62711864	      8.59946599	      0.29013366	     95.45756946	      0.28365411	      1.15804653	      0.17657442	     -5.20541835	      6.23769367	    -14.69162973	     12.62933738	      0.22042352	     28.70400834	     -1.96722176	      0.00000000	     -8.86277371	    -11.51607998	     -6.09552610	      9.67034004	      0.16877927	     36.80378861	      8.58464902	      0.00000000	      0.49129955	      0.89452994	     -0.79237608	      0.91239239	      1.18972482	     -0.84189959	      0.80715603	      2.17496010	     -0.84189959	      0.56150625	      2.17496010	     -0.69332907	      0.45622076	      1.82412546	     -0.64380557	      0.28072856	      1.38562688	     -0.59428206	      3.50930354	     10.11910161	     -4.40695806	      0.00000000	      0.00000000	     28.32922525	     -2.29905300	     13.96406444	    150.69448429	    -40.93007703	    113.52644548	     46.52193402	     83.57103583	    -14.02017182	     14.35030864	    156.96696115	    -26.73635294	    116.08484674	     43.08440760	     44.70156418	     -3.99204291	      3.10959996
      6.64406780	      8.72196010	      0.31847120	     95.03250026	      0.28419695	      1.15830758	      0.17552413	     -5.15566044	      6.22041504	    -15.48011361	     12.91670135	      0.22543897	     28.71025708	     -0.91938204	      0.00000000	     -8.99311301	    -11.59580400	     -6.78018083	      9.65891264	      0.16857983	     37.03250694	      9.20881082	      0.00000000	      0.46095728	      0.97913656	     -1.04578480	      0.85604377	      1.30225163	     -1.11114635	      0.75730672	      2.38067264	     -1.11114635	      0.52682808	      2.38067264	     -0.91506170	      0.42804493	      1.99665528	     -0.84970015	      0.26339099	      1.51668253	     -0.78433860	      3.29257178	     11.07618861	     -5.81634132	      0.00000000	      0.00000000	     28.31233341	      0.56790647	     20.79593460	    149.40473136	    -38.83911178	    110.76321941	     47.81998381	     80.59403328	    -11.56255148	     13.51455708	    157.90689695	    -29.44590986	    117.45538133	     40.42554469	     47.15392575	     -3.25259948	      1.22513939
